<svg width="254mm" height="142.88mm" version="1.1" viewBox="0 0 254 142.88" xmlns="http://www.w3.org/2000/svg" xmlns:xlink="http://www.w3.org/1999/xlink">
 <g transform="translate(55.94 -38.842)">
  <image x="-55.94" y="38.842" width="254" height="142.88" preserveAspectRatio="none" xlink:href="map.jpg"/>
  <path d="m47.493 159.33 1.3363-3.3409 2.8063-0.40091 2.1382 2.0713 3.4077 0.86863 3.274-2.4054-6.4813-4.744-2.4722-4.8108-5.2118-1.1359-1.8041 1.8709 0.93544 1.6704-3.5413 0.93545-1.6036 4.3431 3.1404 3.4745 1.7373-1.0023z" style="fill:#0ff;stroke-width:.26458px;stroke:#000"/>
  <path d="m53.774 157.66-0.26727 2.5391 1.1359 1.9377 1.3364-0.13364 2.8063 2.6727-0.4009 2.1382 0.73499 1.4032 2.7395 1.0691 1.6704 5.0113 1.6704 0.20045 3.7418-6.5481 3.2741-0.13364 3.7418-2.4054h4.8777l8.6194-1.5368 0.26727-4.744 1.6704 1.3364 2.2718-0.46772 0.735-4.2763 3.1404-4.9445 0.0668-9.5549-3.5413-8.0849 0.66817-1.6704-4.6104-7.8845h-2.0713l-4.4099 3.2072-6.0804-2.0045-3.4077 2.94-3.3409 3.0736 0.20045-2.2718-2.5391-0.46772-1.3364 1.2027-2.0045-2.4054-0.20045-2.1382-2.2718-0.33408-2.205 2.2718-1.9377 0.46772v2.6727l-3.1404 0.66819-3.675-1.2027-3.6081 1.47-2.5391 3.7418-2.3386 2.6059-0.66817 1.4032 2.7395 1.7373-0.20045 4.6104 1.2027 0.60136 5.2118 1.1359 2.4722 4.8108 6.4813 4.744-3.274 2.4054z" style="fill:#ff0;stroke-width:.26458px;stroke:#000"/>
  <path d="m94.733 131.47 1.4622-1.6306-2.4568-4.6302-0.37798-3.8743-1.6064-1.6064h3.8743l3.2128 3.9688 3.3073-0.94494 1.7009-1.6064s1.3229 0.75596 1.9844 0.85045c0.66145 0.0945 1.9844 3.1183 1.9844 3.1183l-5.3862 5.0082-2.1734 2.2679z" style="fill:#008000;stroke-width:.26458px;stroke:#000"/>
  <path d="m91.754 119.73-0.18899-4.9137-1.6064-2.3624-1.7009-2.9293 6.3311-0.37799 6.5201 8.599-6.0476-1.9844-1.4475 3.7332z" style="fill:#fc0;stroke-width:.26458px;stroke:#000"/>
  <path d="m128.32 129.98 4.205 0.0472-0.42522-3.1656 1.4647-0.99218-0.189-4.4412-1.6536-2.4569h-5.1499l0.18899 1.7482 2.0316 1.2757-0.47246 1.8426-2.5986 1.1339 0.66146 3.071z" style="fill:#999;stroke-width:.26458px;stroke:#000"/>
  <path d="m152.73 151.58 1.0691-3.675-1.2695-2.1382 2.2718-4.6104 2.5391 2.2718 5.2118 1.0023 2.94 2.8063-0.735 1.7372-1.9377 1.6704s2.6059 2.0713 2.2718 2.4054c-0.33409 0.33409-3.4745 3.4077-3.4745 3.4077l-6.8154-1.1359-0.40091-2.1382z" style="fill:#0ff;stroke-width:.26458px;stroke:#000"/>
  <path d="m140.77 102.67c0.33408 0 3.0068 0.60135 3.0068 0.60135l0.46772 3.7418h3.3409l4.8108 5.6127s3.5413 0.0668 2.5391-0.86863c-1.0023-0.93543-4.5436-5.2786-4.5436-5.2786l1.7372-3.4077-1.8709-4.8108-0.40091-6.3476-2.205-4.8777 0.13363-4.2095-2.94-4.009-1.4032-2.4722v-8.0849l-2.6727-7.684-6.8154-1.4032-3.3409 4.41-3.2072-2.6059-9.2876 1.1359 0.60135 2.6727s-1.0023 0.53454-1.2695 0.53454c-0.26728 0-1.1359-0.86863-1.1359-0.86863l-5.8799 3.675 1.1359 4.2095-4.3431 3.5413 2.8063 1.3363-0.53454 2.3386-1.0023 1.6036 1.2027 4.3431 1.7372-0.26727 1.8709-1.8041 1.7373 4.0759 4.5436 0.0668 3.8086 0.33409 3.3409 2.3386 2.0045-3.1404 2.0045 1.0691 3.3409-0.4009 3.6081 0.4009-0.0668 3.6081-1.5368 4.009 0.73499 2.4054-0.8018 2.8731 1.9377 1.7373z" style="fill:#008080;stroke-width:.26458px;stroke:#000"/>
  <path d="m10.583 96.767 5.4806-3.0238 12.001-3.0238 2.0789-5.8586 5.1027 0.37798 0.85045-3.9688 5.1027-2.2679s2.9293 1.8899 3.4018 1.8899 9.9219-8.41 9.9219-8.41l-2.5513-4.6302 6.8981 0.37798 0.66146-2.3624-2.1734-1.6064 3.2128-0.18899 1.6064-2.9293 1.0394-3.9688-2.7403-0.75595-0.18899-3.0238 1.7954-6.2366-9.6384 6.9926 4.0632-7.3705-8.032 4.4412 0.94494-2.1734-3.8743 0.37797-6.1421 5.2917-0.85044-0.75595-2.5513 1.7954-1.3229 3.2128s-3.2128 3.3073-4.0632 4.0632c-0.85045 0.75595-5.1972 5.9531-5.1972 5.9531l-6.4256-3.8743-4.0633 1.7954-0.56696 4.2522-2.4568 0.56697-5.8586-3.2128-6.7091 2.9293 3.2128 0.85044-5.4806 2.3624 2.9293 0.75596 1.3229 2.4568-4.4412 1.0394-2.1734 2.1734-1.9844-0.75595-3.7798 4.1577-1.9844 2.1734 1.2284 1.2284 2.5513 0.18899-1.5119 3.2128 3.5908 1.4174 3.2128 0.56696 3.7798 1.6064 2.1734-5.3862 5.1027-2.9293-3.3073 5.0082-1.9844 3.6853 4.9137 0.56696z" style="fill:#f9f9f9;stroke-width:.26458px;stroke:#000"/>
  <path d="m98.207 113.9 0.86862-2.2718 5.479 0.46773 0.86862 1.3363 3.2072 0.3341 0.53454 4.2095 4.744 2.3386 2.2718-0.60135-1.1359-4.8108 1.1359-4.8777-5.5458-6.0804h-4.6104l-8.1517-12.829-5.9468-0.13364-3.2072 3.1404 1.0691 2.4054-2.8063-2.6727s-3.2072 0.20045-3.7418 0.20045-3.675-2.6059-3.675-2.6059l-2.3386-4.41-0.60136-6.214 5.4122-5.0781-7.0826-0.73499 0.60135-2.6727-3.8754-1.2027 3.7418-2.4054-7.0826 0.26727-0.46772-2.4054-12.094 5.0781-0.33409-3.6081-3.4724-0.20896 2.5513 4.6302-6.8298 5.9355-0.80181 7.1495-2.3386 5.6127 4.3431 3.4077 4.8777 3.4745-3.3409 5.2786 4.2763 8.7531 6.2808 1.5368 3.274 3.1404 2.8063 0.13364 0.33408 4.4099 3.4745 0.0668 2.2718-0.80179-1.6704-9.0872 5.4122 1.5368 3.274 1.5368 0.86863-4.3431 0.80181-3.4077 1.4032 0.0668 0.46773 1.8709 4.5496 0.77113 6.3311-0.37798z" style="fill:#ff2a2a;stroke-width:.26458px;stroke:#000"/>
  <path d="m10.583 96.767 1.4295 2.9652 5.0781 0.20045 0.13364 3.0068-3.8754 0.0668-2.4054-2.8063-1.2695 1.7372 1.0691 1.5368 1.47 4.5436 4.6104 1.2695 3.8754 1.9377 2.0713 2.0713 1.8041-0.3341-1.1359-2.205 1.4032-0.60137 2.4723 0.86863 0.86862 2.0713 2.4723 1.6704 8.7531 0.80181 2.2718 1.47 4.744-1.4032 6.214 0.53454 2.0713-4.0759-4.2763-8.7531 3.3409-5.2786-9.2208-6.8822 2.3386-5.6127 0.80181-7.1495-3.1404 2.6059-3.3535-2.0212-5.1027 2.2679-0.85045 3.9688-5.1027-0.37798-2.0789 5.8586-12.001 3.0238z" style="fill:#5fbcd3;stroke-width:.26458px;stroke:#000"/>
 </g>
</svg>
